<?xml version="1.0" encoding="utf-8"?>
<!-- Generator: Adobe Illustrator 16.0.0, SVG Export Plug-In . SVG Version: 6.00 Build 0)  -->
<!DOCTYPE svg PUBLIC "-//W3C//DTD SVG 1.1//EN" "http://www.w3.org/Graphics/SVG/1.1/DTD/svg11.dtd">
<svg version="1.1" id="Calque_1" xmlns="http://www.w3.org/2000/svg" xmlns:xlink="http://www.w3.org/1999/xlink" x="0px" y="0px"
	 width="841.89px" height="595.28px" viewBox="0 0 841.89 595.28" enable-background="new 0 0 841.89 595.28" xml:space="preserve">
<g>
	<path fill="#FFFFFF" d="M678,554.242c-170.6,0-341.199,0-511.899,0c0-170.52,0-341.077,0-511.799c170.566,0,341.232,0,511.899,0
		C678,212.954,678,383.579,678,554.242z M172.322,549.812c90.311,0,179.837,0,270.557,0c-31.591-24.602-52.806-55.125-62.543-92.994
		c-9.761-37.961-7.211-75.466,10.078-110.609c33.61-68.317,90.334-98.142,165.641-95.925c0.031-0.178,0.232-0.812,0.233-1.446
		c0.021-23.16,0.099-46.321-0.106-69.48c-0.018-1.969-1.531-4.323-3.027-5.824c-40.104-40.249-80.326-80.38-120.416-120.644
		c-3.045-3.058-6.066-4.396-10.438-4.389c-81.146,0.124-162.292,0.089-243.438,0.091c-6.536,0-6.551,0.013-6.551,6.412
		c0.001,162.958,0.006,325.917,0.01,488.875C172.322,545.682,172.322,547.485,172.322,549.812z M672.716,415.437
		c-0.154-73.492-59.948-133.16-133.433-133.15c-73.727,0.01-133.503,59.99-133.277,133.731
		c0.226,73.47,60.417,133.38,133.602,132.979C613.236,548.592,672.869,488.756,672.716,415.437z"/>
	<path fill-rule="evenodd" clip-rule="evenodd" fill="#4B4B4B" d="M172.322,549.812c0-2.327,0-4.131,0-5.934
		c-0.004-162.958-0.009-325.917-0.01-488.875c0-6.399,0.015-6.412,6.551-6.412c81.146-0.002,162.292,0.033,243.438-0.091
		c4.371-0.007,7.393,1.331,10.438,4.389c40.09,40.264,80.312,80.395,120.416,120.644c1.496,1.501,3.01,3.855,3.027,5.824
		c0.205,23.159,0.127,46.32,0.106,69.48c-0.001,0.635-0.202,1.269-0.233,1.446c-75.307-2.217-132.031,27.607-165.641,95.925
		c-17.29,35.144-19.839,72.648-10.078,110.609c9.737,37.869,30.953,68.393,62.543,92.994
		C352.159,549.812,262.632,549.812,172.322,549.812z M417.135,71.213c0,37.877,0,76.326,0,114.779c38.759,0,77.119,0,114.796,0
		C493.745,147.812,455.365,109.438,417.135,71.213z M320.573,267.297c0,0.006,0,0.012,0,0.018c25.323,0,50.646,0.02,75.969-0.01
		c10.458-0.012,17.903-6.725,17.911-16.025c0.007-9.167-7.628-15.957-18.007-15.966c-15.66-0.015-31.32,0-46.98,0.001
		c-35.152,0-70.304-0.032-105.456,0.019c-10.161,0.016-17.482,7.324-17.096,16.793c0.347,8.494,7.476,15.116,16.691,15.144
		C269.26,267.348,294.917,267.297,320.573,267.297z M299.317,122.278c0,0.006,0,0.012,0,0.018c-18.329,0-36.658-0.023-54.987,0.01
		c-10.098,0.018-17.453,6.797-17.42,15.943c0.032,9.225,7.308,16.011,17.383,16.02c36.158,0.03,72.316,0.029,108.475-0.013
		c10.475-0.012,18.043-6.795,18.044-15.962c0.001-9.199-7.595-15.991-18.007-16.008
		C334.975,122.257,317.146,122.278,299.317,122.278z M288.462,493.395c0-0.008,0-0.016,0-0.023c15.313,0,30.627,0.084,45.939-0.033
		c8.525-0.065,14.593-5.241,15.781-13.031c1.604-10.521-5.943-18.875-17.279-18.895c-29.461-0.049-58.922-0.022-88.383,0.008
		c-10.128,0.011-17.536,6.691-17.625,15.778c-0.092,9.411,7.209,16.16,17.625,16.188
		C259.167,493.423,273.815,493.395,288.462,493.395z M288.568,380.351c14.827,0,29.654,0.023,44.481-0.008
		c9.995-0.021,17.463-6.898,17.444-15.974c-0.019-9.014-7.557-15.989-17.511-16.003c-29.487-0.043-58.975-0.042-88.462-0.004
		c-10.376,0.014-17.735,6.906-17.629,16.325c0.102,9.047,7.541,15.649,17.696,15.66
		C259.247,380.364,273.908,380.352,288.568,380.351z"/>
	<path fill-rule="evenodd" clip-rule="evenodd" fill="#4B4B4B" d="M672.716,415.437c0.153,73.319-59.479,133.155-133.107,133.56
		c-73.186,0.401-133.376-59.509-133.602-132.979c-0.226-73.741,59.55-133.722,133.277-133.731
		C612.768,282.276,672.562,341.944,672.716,415.437z M523.271,399.523c-2.312,0-3.793-0.001-5.275,0.001
		c-10.328,0.008-20.658-0.08-30.985,0.052c-9.663,0.123-17.006,7.153-16.984,15.995c0.021,8.961,7.246,15.79,16.947,15.937
		c4.83,0.073,9.662,0.016,14.493,0.016c7.111,0,14.224,0,21.778,0c0,2.48,0,4.286,0,6.091c0.002,10.162-0.104,20.325,0.037,30.485
		c0.131,9.44,7.551,17.034,16.203,16.879c8.711-0.156,15.617-7.383,15.727-16.739c0.123-10.327,0.03-20.657,0.031-30.985
		c0-1.759,0-3.519,0-5.73c2.551,0,4.35,0.002,6.148-0.001c10.661-0.013,21.324,0.088,31.983-0.08
		c6.874-0.107,11.633-3.695,14.164-10.013c2.479-6.188,1.229-13.2-4.243-17.155c-3.522-2.545-8.338-4.3-12.673-4.529
		c-11.578-0.611-23.21-0.208-35.397-0.208c0-2.566-0.001-4.526,0-6.485c0.002-10.162,0.05-20.324-0.006-30.485
		c-0.041-7.3-3.729-12.39-10.279-15.135c-10.293-4.313-21.422,3.674-21.624,15.546C523.111,374.934,523.271,386.896,523.271,399.523
		z"/>
	<path fill-rule="evenodd" clip-rule="evenodd" fill="#FFFFFF" d="M417.135,71.213c38.23,38.225,76.61,76.599,114.796,114.779
		c-37.678,0-76.037,0-114.796,0C417.135,147.539,417.135,109.09,417.135,71.213z"/>
	<path fill-rule="evenodd" clip-rule="evenodd" fill="#FFFFFF" d="M320.573,267.297c-25.656,0-51.312,0.051-76.968-0.027
		c-9.215-0.027-16.344-6.649-16.691-15.144c-0.386-9.469,6.935-16.777,17.096-16.793c35.152-0.051,70.304-0.019,105.456-0.019
		c15.66-0.001,31.32-0.016,46.98-0.001c10.379,0.009,18.014,6.799,18.007,15.966c-0.008,9.301-7.453,16.014-17.911,16.025
		c-25.323,0.029-50.646,0.01-75.969,0.01C320.573,267.309,320.573,267.303,320.573,267.297z"/>
	<path fill-rule="evenodd" clip-rule="evenodd" fill="#FFFFFF" d="M299.317,122.278c17.829,0,35.658-0.021,53.487,0.008
		c10.412,0.017,18.008,6.809,18.007,16.008c-0.001,9.167-7.57,15.95-18.044,15.962c-36.158,0.042-72.316,0.043-108.475,0.013
		c-10.075-0.009-17.351-6.795-17.383-16.02c-0.032-9.146,7.323-15.926,17.42-15.943c18.329-0.033,36.658-0.01,54.987-0.01
		C299.317,122.29,299.317,122.284,299.317,122.278z"/>
	<path fill-rule="evenodd" clip-rule="evenodd" fill="#FFFFFF" d="M288.462,493.395c-14.647,0-29.295,0.028-43.942-0.009
		c-10.416-0.027-17.717-6.776-17.625-16.188c0.089-9.087,7.497-15.768,17.625-15.778c29.461-0.03,58.922-0.057,88.383-0.008
		c11.336,0.02,18.882,8.374,17.279,18.895c-1.188,7.79-7.256,12.966-15.781,13.031c-15.312,0.117-30.626,0.033-45.939,0.033
		C288.462,493.379,288.462,493.387,288.462,493.395z"/>
	<path fill-rule="evenodd" clip-rule="evenodd" fill="#FFFFFF" d="M288.568,380.352c-14.66,0-29.321,0.013-43.981-0.004
		c-10.155-0.011-17.594-6.613-17.696-15.66c-0.105-9.419,7.253-16.312,17.629-16.325c29.487-0.038,58.975-0.039,88.462,0.004
		c9.954,0.014,17.492,6.989,17.511,16.003c0.02,9.075-7.449,15.952-17.444,15.974C318.222,380.374,303.395,380.351,288.568,380.352z
		"/>
	<path fill-rule="evenodd" clip-rule="evenodd" fill="#FFFFFF" d="M523.271,399.523c0-12.628-0.159-24.59,0.045-36.546
		c0.202-11.872,11.331-19.859,21.624-15.546c6.551,2.745,10.238,7.835,10.279,15.135c0.056,10.161,0.008,20.323,0.006,30.485
		c-0.001,1.959,0,3.919,0,6.485c12.188,0,23.819-0.403,35.397,0.208c4.335,0.229,9.15,1.984,12.673,4.529
		c5.473,3.955,6.723,10.967,4.243,17.155c-2.531,6.317-7.29,9.905-14.164,10.013c-10.659,0.168-21.322,0.067-31.983,0.08
		c-1.799,0.003-3.598,0.001-6.148,0.001c0,2.212,0,3.972,0,5.73c-0.001,10.328,0.092,20.658-0.031,30.985
		c-0.109,9.356-7.016,16.583-15.727,16.739c-8.652,0.155-16.072-7.438-16.203-16.879c-0.141-10.16-0.035-20.323-0.037-30.485
		c0-1.805,0-3.61,0-6.091c-7.555,0-14.667,0-21.778,0c-4.831,0-9.663,0.058-14.493-0.016c-9.701-0.146-16.926-6.976-16.947-15.937
		c-0.021-8.842,7.321-15.872,16.984-15.995c10.327-0.132,20.657-0.044,30.985-0.052
		C519.478,399.522,520.959,399.523,523.271,399.523z"/>
</g>
</svg>
